<svg xmlns="http://www.w3.org/2000/svg" xmlns:xlink="http://www.w3.org/1999/xlink" viewBox="0 0 1998.71 1504.31"><defs><style>.cls-1,.cls-10,.cls-15,.cls-9{fill:none;}.cls-2{fill:#fff;}.cls-3{fill:#efefef;}.cls-4{fill:#bababa;}.cls-5{fill:#d3d3d3;}.cls-19,.cls-6{fill:#29272c;}.cls-7{fill:#0160d2;}.cls-8{fill:#2998ef;}.cls-9{stroke:#29272c;}.cls-10,.cls-15,.cls-9{stroke-miterlimit:10;stroke-width:2px;}.cls-10{stroke:#fefdff;}.cls-11{clip-path:url(#clip-path);}.cls-12{fill:#e73a70;}.cls-13{fill:#ffd040;}.cls-14{fill:#f6809a;}.cls-15{stroke:#e73a70;}.cls-16{fill:#fa5965;}.cls-17{fill:#fcb9c2;}.cls-18{fill:#7fc7f7;}.cls-19{font-size:40.5px;font-family:Rubik-Light, Rubik Light;font-weight:300;letter-spacing:0.1em;}</style><clipPath id="clip-path" transform="translate(-2.29)"><rect class="cls-1" x="1116.25" y="619.72" width="802.84" height="780.07"/></clipPath></defs><g id="BACKGROUND"><rect class="cls-2" width="1998.71" height="1400"/><rect class="cls-3" x="997.71" width="1001" height="1400"/></g><g id="OBJECT"><path class="cls-4" d="M105,1400s11.32-66.85,90.5-80.79,259.59-55.52,259.59-55.52,21.28,16.45,2.83,37.89-249.6,56.64-249.6,56.64-37.07,4.07-37.07,41.78Z" transform="translate(-2.29)"/><path class="cls-5" d="M877,1097.29c-12,66-50,247.42-52,302.71l-75.62-.21-101.08-.27L418,1398.89l28.63-424.1s9-99,123-114S847.1,828.94,868.1,914.61,889,1031.29,877,1097.29Z" transform="translate(-2.29)"/><polygon class="cls-6" points="795.7 1081.11 747.09 1399.79 646.01 1399.52 795.7 1081.11"/><path class="cls-7" d="M225,1148.64s-75,148.65-40,169.65,113-36,113-36l29-147Z" transform="translate(-2.29)"/><path class="cls-8" d="M389.26,967.57S319,997.29,275,1069.29c-30.05,49.17-55,79.35-55,79.35s39,41.65,105,26.65Z" transform="translate(-2.29)"/><polygon class="cls-6" points="348.38 1040.29 266.54 1175.14 313.68 1191.22 348.38 1040.29"/><polygon class="cls-6" points="610.55 813.27 621.13 756.68 596.71 759.29 610.55 813.27"/><path class="cls-7" d="M476,754.29s6,81,34,91,32,14,29,35-48,40-48,40,21,34,66,34,66-57,66-57l-15-124s19-9,15-22-15-9.59-15-9.59-15-83.41-66-67.41S470.11,715.26,476,754.29Z" transform="translate(-2.29)"/><path class="cls-6" d="M476,754.29l-1-12.59c27,9.41,74.25-19.41,74.25-19.41,15.3,18,28.71,22,32.71,25s8,29,8,29h9v-17c0-8,9-17.59,9-17.59,14,.41,15,9.59,15,9.59,22-59-20-79-20-79-17-30-77-26-101-12C502,660.29,404,694.29,476,754.29Z" transform="translate(-2.29)"/><path class="cls-3" d="M250.13,1400s44.37-138.72,56.2-206.22,37-209,99.09-239.49,97.69-37.86,97.69-37.86l24.15,26.86,97.93-46s136.66,4,145.54,31l8.87,27s-20.7,125.72-34,193.35S690.86,1400,690.86,1400Z" transform="translate(-2.29)"/><path class="cls-2" d="M447.63,1024.33l-4,102.47s-1,12.09,16.76,14,49.09-7.17,49.09-7.17,8.42-1.55,7.51-20.53,1.32-93.28,1.32-93.28-1.82-13.91-10.4-14.36-46.48,2-46.48,2S448.25,1008.41,447.63,1024.33Z" transform="translate(-2.29)"/><path class="cls-7" d="M197,1229.11s34-33.82,77-45.82,93.53-35,115.26-48,27.74-25,27.74-25,11-31.46,23-37.23l12-5.77v13s-7,16,0,14,30-16,41-27,26.12-27,26.12-27,4.11,14,0,24,7.11,17,0,25-6.12,23-17.12,31-43,28-54,39-152.87,192-251,163.65C158.32,1311.75,197,1229.11,197,1229.11Z" transform="translate(-2.29)"/><path class="cls-8" d="M523.68,943.29s72.65-88,111.32-46Z" transform="translate(-2.29)"/><path class="cls-8" d="M491,914.61l32.68,28.68S521.67,885.94,491,914.61Z" transform="translate(-2.29)"/><path class="cls-4" d="M410,1400s15-48.71,95-56.71,263-36,263-36,20,18,0,38-253.13,37.86-253.13,37.86S491,1382.71,489,1400Z" transform="translate(-2.29)"/><path class="cls-7" d="M642,1161.29s-15.89,84-18.45,98c0,0-70.55,17-123.55,41s-97.47,47-118.74,52S342.38,1400,342.38,1400H410s306.65-40.93,327-91.71c21-52.28,36.72-116,36.72-116Z" transform="translate(-2.29)"/><path class="cls-8" d="M750.37,912c26.78,3,70.73,38.09,36.15,277,0,0-68.86,25.14-151.52-25.15C635,1163.85,678.07,903.77,750.37,912Z" transform="translate(-2.29)"/><polyline class="cls-9" points="521.39 943.29 512.58 983.68 526.83 983.68"/><rect class="cls-9" x="564.33" y="1028.79" width="68.39" height="21.61"/><path class="cls-10" d="M229.43,1203.89s24.92-22.08,60.25-25.34" transform="translate(-2.29)"/><path class="cls-10" d="M507.34,816.27s9.5,14,32.14,0" transform="translate(-2.29)"/><path class="cls-10" d="M637.75,1148.64s88.15,40.17,150.25,29.91" transform="translate(-2.29)"/><path class="cls-10" d="M226,1141s55,29.31,85.57,23.44" transform="translate(-2.29)"/><path class="cls-9" d="M852.89,885.93s-37.29,1.36-35.79,68.36,0,170.17-7.49,228.83-30,216.67-30,216.67" transform="translate(-2.29)"/><g class="cls-11"><path class="cls-12" d="M1612,1271.78s0,44.37,44.67,43.53,38-45.4,38-45.4Z" transform="translate(-2.29)"/><path class="cls-9" d="M1257.15,1157.62s-18.16,150.52,54,231.85L1343.2,1367s-62.88-34.73-54.61-209.33Z" transform="translate(-2.29)"/><path class="cls-4" d="M1654.42,938.84s20.34,10.45,27.54,61.45,15,197.41,13.22,198.07-54.94,34.85-65-5.11S1654.42,938.84,1654.42,938.84Z" transform="translate(-2.29)"/><path class="cls-13" d="M1618.09,797.71s58-41.69,27.46-84.4-49.83-39.65-79.31-43.72-74.23,1-95.58,23.36-36.61,73.24-44.74,97.64-126.54,131.22-60.22,209,220.87,55.39,247.31,5.57S1596.94,890.47,1618.09,797.71Z" transform="translate(-2.29)"/><path class="cls-14" d="M1373,1351.32s-115.84-1.21-127.43,56.86S1234,1491.07,1282,1496s248.23,8.28,248.23,8.28Z" transform="translate(-2.29)"/><path class="cls-14" d="M1354.78,1157.62l-16.65,4.28c-17.82,4.55-47.14,12-73.84,18.46-30.36,7.38-57.32,13.53-60.1,12.83-6.62-1.65-26.48-6.62-43-14s-29.78-83.59-21.51-143.17S1330,960,1330,960Z" transform="translate(-2.29)"/><path class="cls-6" d="M1338.13,1161.9c-17.82,4.55-47.14,12-73.84,18.46,2.73-30.28,16.26-161.25,47.46-187.74C1338.06,970.28,1339.24,1096.14,1338.13,1161.9Z" transform="translate(-2.29)"/><path class="cls-5" d="M1660.09,995.48c-2.89,19.35-4.27,39.24-6.1,58.27-2,20.38-4.46,39.78-9.92,56.45-4,12.33-9.66,23.17-17.9,31.83-29.78,31.3-38.5,107.43-35,180.24l-261.24,29s-29.52-123.12-33.06-244l.06-47c1.62-45.7,8.21-88.62,23-121.51,7-15.54,63.71-32.86,121.16-37.26s149.49,26.36,205.76,29.91C1646.85,931.49,1668.36,940.08,1660.09,995.48Z" transform="translate(-2.29)"/><path class="cls-2" d="M1654,1053.75c-2,20.38-4.46,39.78-9.92,56.45-38.53,10.45-153.33,32.66-347.17-2.9l.06-47v-.06S1562.24,1091,1654,1053.75Z" transform="translate(-2.29)"/><path class="cls-15" d="M1297,1066.06s249.35,34.78,355.74,0" transform="translate(-2.29)"/><path class="cls-15" d="M1297,1102.94s249.35,34.78,355.74,0" transform="translate(-2.29)"/><path class="cls-12" d="M1596.74,784.2s-9.15,42-12.2,57.23S1568.27,870.92,1554,873s-23.38,5.09-23.38,16.27,37.62,26.44,37.62,26.44-14.24,46.77-53.89,41.69-66.71-56.11-66.71-56.11,27-5.92,32.14-25.24,9.15-64.06,9.15-64.06-16.27-10.16-7.12-21.35,13.22-6.39,13.22-6.39,10.27-89.56,70.16-72.92C1620.13,726.53,1596.74,784.2,1596.74,784.2Z" transform="translate(-2.29)"/><path class="cls-12" d="M1330,1351.32s3.31,138.1,132.39,153L1848.15,1400s12.57-49.24-256.94-77.73Z" transform="translate(-2.29)"/><path class="cls-6" d="M1619.49,1112.2l157-26.2s23,2.45,20.79,23.63-25,130.84-25,130.84-.55,26.08-21.08,31.36-166.66,33.61-166.66,33.61-23.39.85-17-38.69,21.73-121.14,21.73-121.14S1594.09,1116.44,1619.49,1112.2Z" transform="translate(-2.29)"/><path class="cls-10" d="M1797.28,1109.63s-12-8-20.12-6.69-148.8,23.3-148.8,23.3-19.27,9.94-20.27,18-23,136.41-23,136.41-3,19.62,5.5,23.63" transform="translate(-2.29)"/><path class="cls-12" d="M1794.32,1165.61l-5.09,16.18s-1.7,16.91-5.94,24.65-39.88,29.33-39.88,29.33c-65.21,16.77-171.12,28.91-237.76,25.18-24.31-1.35-43.4-4.82-53.38-10.94-37.34-22.91-106.06-157-123-205.46s-9.43-109.21,11-113.33c49.21-9.93,67,66.79,98.42,132.12S1500,1179,1500,1179a226,226,0,0,1,24.2,3.8c28.52,5.67,68.34,15.68,104.62,18.86,48.36,4.25,64.25-2.36,76.12-7.36s23.19-4.94,26.58-12.52,18.2-15.91,18.66-16.17c-.21.57-9.26,24.57-3.39,22.05s23.76-16.12,31.4-21.21S1794.32,1165.61,1794.32,1165.61Z" transform="translate(-2.29)"/><path class="cls-13" d="M1582.51,709.22s5.08,74.25-59,70.18l-28.47,4.8s-20.34-30.25,0-62.77S1564.2,693.94,1582.51,709.22Z" transform="translate(-2.29)"/><path class="cls-4" d="M1524.21,1179.81,1505.65,1264c-24.31-1.35-43.4-5.82-53.38-11.94-37.34-22.91-109.06-159-126-207.46s-6.43-109.21,14-113.33c49.21-9.93,69,66.79,100.42,132.12S1500,1178,1500,1178C1506.45,1178.52,1514.7,1177.93,1524.21,1179.81Z" transform="translate(-2.29)"/><path class="cls-9" d="M1181.09,1178.55s-32-139.92,0-157.59,125.3-37.28,125.3-37.28" transform="translate(-2.29)"/><path class="cls-9" d="M1582.6,683.8a119.06,119.06,0,0,1-.18,35.05" transform="translate(-2.29)"/><path class="cls-9" d="M1539.17,848.59s7.42,8.79,18,0" transform="translate(-2.29)"/><path class="cls-10" d="M1319.93,987.29s28.43-25.78,70.13-29.56" transform="translate(-2.29)"/><path class="cls-10" d="M1326.28,1044.55s47.66-38.67,86.9-43.3" transform="translate(-2.29)"/><path class="cls-10" d="M1346.45,1091.29s54-42.23,84-50.45" transform="translate(-2.29)"/><path class="cls-10" d="M1365.78,1129.28s59.38-43.37,81.35-52.68" transform="translate(-2.29)"/><path class="cls-10" d="M1388.44,1169.51s59.27-50.22,80-50.55" transform="translate(-2.29)"/><path class="cls-10" d="M1421,1216.9s41.8-71.06,60.6-72.67" transform="translate(-2.29)"/><path class="cls-10" d="M1500,1178s-38.28,51-40.6,77.49" transform="translate(-2.29)"/><path class="cls-10" d="M1662,972.51s7.82.14,12.8-2.88" transform="translate(-2.29)"/><path class="cls-10" d="M1658.74,1005.42s19.42,1.21,23.22-5.13" transform="translate(-2.29)"/><path class="cls-10" d="M1654.42,1050.4s23.77.66,31.89-9.56" transform="translate(-2.29)"/><path class="cls-10" d="M1649.9,1086s28.67,1.6,39.6-4.89" transform="translate(-2.29)"/><path class="cls-9" d="M1445.09,901.15s28,86.14,63,79.64l16.59-23.06,26.41,23.41s14-3.35,17.5-15.85-.32-49.63-.32-49.63" transform="translate(-2.29)"/><polygon class="cls-10" points="1626.96 1144.23 1623.07 1157.62 1640.8 1152.62 1643.8 1139.23 1626.96 1144.23"/><path class="cls-9" d="M1566,686.29s6,61-30,75" transform="translate(-2.29)"/><path class="cls-9" d="M1548,685.29s4,35-17,51" transform="translate(-2.29)"/><path class="cls-9" d="M1460,816.29s5-27,28-31" transform="translate(-2.29)"/></g><line class="cls-9" x1="1027.87" y1="626.69" x2="1027.87" y2="1399.79"/><line class="cls-9" x1="1027.87" x2="1027.87" y2="220.5"/><path class="cls-8" d="M1243.32,327.93l-14.14,46.73a108.49,108.49,0,0,1-29.46,47.57l-155.78,146.7-17.43,16.41-.24-.23-28.84-27.22L853.16,421.75a108.38,108.38,0,0,1-29.82-49l-14.19-49.43C789.56,255.11,839.71,185.86,910.7,185c1,0,1.93,0,2.9,0,60.46.78,109.73,49.21,112,109.11.07,1.5.1,3,.1,4.53h1.07a110.79,110.79,0,0,1,112.37-110.75,112.74,112.74,0,0,1,65,21.53C1241.21,236.26,1256.57,284.12,1243.32,327.93Z" transform="translate(-2.29)"/><polygon class="cls-8" points="1045.54 263.83 1045.54 568.54 1028.11 584.95 1027.87 584.72 999.03 557.5 1027.24 293.7 1027.87 287.83 1029.07 286.2 1045.54 263.83"/><path class="cls-16" d="M1246.39,330.26l-13.13,43.41a110.91,110.91,0,0,1-30.11,48.6L1030.4,585l-.24-.23V298.24h.54c-8.49-61,45.63-111,112.37-110.75,1,0,1.93,0,2.9.07C1217.89,190.3,1267.23,261.37,1246.39,330.26Z" transform="translate(-2.29)"/><path class="cls-10" d="M1096.79,268.43h-2.17l-1.14,0-.61,0-1,.05-.64.05-1,.07-.66.06-1,.1-.67.08-.94.12-.67.09-.93.14-.67.12-.91.16-.66.12-.91.19-.66.14-.91.21-.63.15-.92.24-.62.16-.94.27-.58.17-1,.31-.51.16-1.29.43-.19.07c-.49.17-1,.35-1.46.54l-.49.19-1,.38-.61.25-.82.35-.65.29-.76.34-.67.32-.72.35-.68.34-.69.36-.69.37-.66.36-.69.39-.64.37-.7.41-.61.37-.7.44-.58.37-.71.47-.55.37-.72.5-.5.35-.74.54-.42.32c-.27.2-.54.4-.8.61l-.21.16c-1.06.83-2.1,1.69-3.11,2.58l-.11.11-.85.76-.28.26-.77.74-.32.31-.74.74-.33.33-.72.75-.33.34-.69.77c-.11.11-.22.23-.32.35l-.69.78-.3.35-.68.81-.27.34-.68.85-.25.32c-.23.29-.45.59-.68.89l-.2.28c-.24.31-.47.63-.7.95l-.13.2c-.25.35-.5.7-.74,1.06l0,0a65,65,0,0,0-4.44,7.64l0,.05c-.2.41-.39.81-.58,1.22l-.08.16c-.18.39-.36.79-.53,1.19l-.09.21c-.17.39-.34.78-.5,1.17a2.29,2.29,0,0,1-.1.23l-.46,1.18-.09.24-.45,1.2a2,2,0,0,1-.08.22l-.42,1.24-.06.19c-.14.43-.28.85-.41,1.29,0,0,0,.08,0,.12-.14.45-.27.91-.4,1.37h0a65.33,65.33,0,0,0-2.19,12.28v.07c0,.47-.07.95-.1,1.42,0,.13,0,.27,0,.4,0,.36,0,.73,0,1.09l0,.69c0,.58,0,1.16,0,1.74h-.63c0-.9,0-1.79-.06-2.68a67.21,67.21,0,0,0-66.12-64.39h-1.95c-41.8.67-71.19,41.57-59.66,81.75l8.34,29a64.06,64.06,0,0,0,17.63,29l85.11,80.32,17,16.06.14.13,10.29-9.68,91.9-86.54a64.07,64.07,0,0,0,17.42-28.14l8.32-27.48c7.54-24.94-.49-52.28-21-68.39A66.64,66.64,0,0,0,1096.79,268.43Z" transform="translate(-2.29)"/><path class="cls-9" d="M1766.52,905.62a12.75,12.75,0,1,0,16.23-7.87A12.76,12.76,0,0,0,1766.52,905.62Z" transform="translate(-2.29)"/><path class="cls-9" d="M1806.72,909.73a26.57,26.57,0,0,0-50.21-17.41" transform="translate(-2.29)"/><path class="cls-9" d="M1827.07,917.22a48.25,48.25,0,1,0-91.18-31.61" transform="translate(-2.29)"/><path class="cls-9" d="M1845.35,918.32a65.89,65.89,0,0,0-124.51-43.16" transform="translate(-2.29)"/><path class="cls-9" d="M1746.19,752.52s-72.3-279.22-379-315.86" transform="translate(-2.29)"/><path class="cls-17" d="M1637.62,355.36V320.51A10.59,10.59,0,0,0,1627,309.92h-69a10.59,10.59,0,0,0-10.59,10.59v55.12a10.59,10.59,0,0,0,10.59,10.59h69a10.59,10.59,0,0,0,10.59-10.59l18.59,3.08Z" transform="translate(-2.29)"/><path class="cls-9" d="M1594,252.67v34.86a10.58,10.58,0,0,0,10.58,10.58h97.7a10.58,10.58,0,0,0,10.59-10.58V232.4a10.59,10.59,0,0,0-10.59-10.58h-97.7A10.58,10.58,0,0,0,1594,232.4l-18.59-3.07Z" transform="translate(-2.29)"/><path class="cls-9" d="M1655,333.29V298.44a10.58,10.58,0,0,0-10.58-10.58h-69a10.58,10.58,0,0,0-10.58,10.58v55.13a10.58,10.58,0,0,0,10.58,10.58h69A10.58,10.58,0,0,0,1655,353.57l18.59,3.07Z" transform="translate(-2.29)"/><line class="cls-9" x1="1688.6" y1="274.3" x2="1613.94" y2="274.3"/><line class="cls-9" x1="1688.6" y1="259.02" x2="1613.94" y2="259.02"/><line class="cls-9" x1="1688.6" y1="245.49" x2="1653.92" y2="245.49"/><line class="cls-9" x1="1632.16" y1="350.39" x2="1586.89" y2="350.39"/><line class="cls-9" x1="1632.16" y1="337.98" x2="1613.94" y2="337.98"/><rect class="cls-9" x="1818.93" y="519.41" width="36" height="74" rx="12"/><path class="cls-9" d="M1821.22,533.41s-25,1.83-31.66-6.42-4.67-34.25-16-36.25-10.27,29.84-11.14,36.25l-.86,6.42" transform="translate(-2.29)"/><line class="cls-9" x1="1818.93" y1="583.41" x2="1781.93" y2="583.41"/><path class="cls-9" d="M1780.36,542.38a8.8,8.8,0,0,1-8.8,8.8h-25.94a8.8,8.8,0,0,1-8.8-8.8h0a8.8,8.8,0,0,1,8.8-8.8h25.94a8.8,8.8,0,0,1,8.8,8.8Z" transform="translate(-2.29)"/><path class="cls-9" d="M1780.36,560.41a8.8,8.8,0,0,1-8.8,8.8h-25.94a8.8,8.8,0,0,1-8.8-8.8h0a8.81,8.81,0,0,1,8.8-8.81h25.94a8.81,8.81,0,0,1,8.8,8.81Z" transform="translate(-2.29)"/><path class="cls-9" d="M1786.36,578a8.8,8.8,0,0,1-8.8,8.8h-25.94a8.8,8.8,0,0,1-8.8-8.8h0a8.8,8.8,0,0,1,8.8-8.8h25.94a8.8,8.8,0,0,1,8.8,8.8Z" transform="translate(-2.29)"/><circle class="cls-9" cx="1836.98" cy="579.02" r="4.38"/><line class="cls-9" x1="1228.87" y1="497.63" x2="1285.27" y2="441.24"/><line class="cls-9" x1="1329.15" y1="397.36" x2="1344.69" y2="381.82"/><line class="cls-9" x1="1300.88" y1="411.19" x2="1316.7" y2="427.25"/><line class="cls-9" x1="1300.76" y1="427.13" x2="1316.82" y2="411.31"/><path class="cls-18" d="M644,236.5a12,12,0,0,1,12,12v42.79a12,12,0,0,1-12,12H434a12,12,0,0,1-12-12V248.5a12,12,0,0,1,12-12H614" transform="translate(-2.29)"/><path class="cls-9" d="M350.42,901.91A12.75,12.75,0,1,1,334.2,894,12.75,12.75,0,0,1,350.42,901.91Z" transform="translate(-2.29)"/><path class="cls-9" d="M310.23,906a26.57,26.57,0,0,1,50.21-17.4" transform="translate(-2.29)"/><path class="cls-9" d="M289.88,913.5a48.25,48.25,0,0,1,91.18-31.61" transform="translate(-2.29)"/><path class="cls-9" d="M271.59,914.61A65.89,65.89,0,0,1,396.1,871.44" transform="translate(-2.29)"/><path class="cls-9" d="M308.76,752.52s72.3-279.22,379-315.86" transform="translate(-2.29)"/><path class="cls-9" d="M657,220.5a12,12,0,0,1,12,12v42.79a12,12,0,0,1-12,12H447a12,12,0,0,1-12-12V232.5a12,12,0,0,1,12-12H627" transform="translate(-2.29)"/><text class="cls-19" transform="translate(457.87 266.71)">ON LINE</text><rect class="cls-9" x="171.33" y="429.57" width="111.64" height="115.49"/><rect class="cls-9" x="188.3" y="446.93" width="77.69" height="63.85"/><path class="cls-9" d="M198.67,510.77s4.33-23.45,28.67-23.45c29.67,0,31.67,23.45,31.67,23.45" transform="translate(-2.29)"/><path class="cls-9" d="M241.34,470.38a12.84,12.84,0,1,1-12.83-12.84A12.83,12.83,0,0,1,241.34,470.38Z" transform="translate(-2.29)"/><circle class="cls-9" cx="227.05" cy="527.54" r="4"/><circle class="cls-9" cx="210.72" cy="527.54" r="4"/><circle class="cls-9" cx="243.63" cy="527.54" r="4"/><path class="cls-9" d="M239,455.88s-4.67,14.66-23.34,14.5" transform="translate(-2.29)"/><path class="cls-9" d="M241.34,470.38c9.34-3.17,4.58-14.84,4.58-14.84S219.34,443,213,463s-10,15.14-10.34,24.36,3.09,9.33,3.09,9.33" transform="translate(-2.29)"/><path class="cls-9" d="M241.92,474.16s6.57,13.13,4,17.42" transform="translate(-2.29)"/><path class="cls-9" d="M773.72,419.3a7.65,7.65,0,1,1-7.65-7.65A7.66,7.66,0,0,1,773.72,419.3Z" transform="translate(-2.29)"/></g></svg>