<svg xmlns="http://www.w3.org/2000/svg" version="1.1" xmlns:xlink="http://www.w3.org/1999/xlink" xmlns:svgjs="http://svgjs.com/svgjs" width="1950" height="1000" preserveAspectRatio="none" viewBox="0 0 1950 1000">
    <g mask="url(&quot;#SvgjsMask2990&quot;)" fill="none">
        <rect width="1950" height="1000" x="0" y="0" fill=""></rect>
        <path d="M35.04 23.37L54.1 34.37L54.1 56.37L35.04 67.37L15.99 56.37L15.99 34.37zM35.04 89.37L54.1 100.37L54.1 122.37L35.04 133.37L15.99 122.37L15.99 100.37zM35.04 155.37L54.1 166.37L54.1 188.37L35.04 199.37L15.99 188.37L15.99 166.37zM35.04 221.37L54.1 232.37L54.1 254.37L35.04 265.37L15.99 254.37L15.99 232.37zM15.99 452.37L35.04 463.37L35.04 485.37L15.99 496.37L-3.06 485.37L-3.06 463.37zM35.04 551.37L54.1 562.37L54.1 584.37L35.04 595.37L15.99 584.37L15.99 562.37zM15.99 650.37L35.04 661.37L35.04 683.37L15.99 694.37L-3.06 683.37L-3.06 661.37zM15.99 782.37L35.04 793.37L35.04 815.37L15.99 826.37L-3.06 815.37L-3.06 793.37zM73.15 155.37L92.2 166.37L92.2 188.37L73.15 199.37L54.1 188.37L54.1 166.37zM111.26 155.37L130.31 166.37L130.31 188.37L111.26 199.37L92.2 188.37L92.2 166.37zM92.2 980.37L111.26 991.37L111.26 1013.37L92.2 1024.37L73.15 1013.37L73.15 991.37zM149.36 23.37L168.41 34.37L168.41 56.37L149.36 67.37L130.31 56.37L130.31 34.37zM130.31 56.37L149.36 67.37L149.36 89.37L130.31 100.37L111.26 89.37L111.26 67.37zM130.31 122.37L149.36 133.37L149.36 155.37L130.31 166.37L111.26 155.37L111.26 133.37zM149.36 155.37L168.41 166.37L168.41 188.37L149.36 199.37L130.31 188.37L130.31 166.37zM130.31 188.37L149.36 199.37L149.36 221.37L130.31 232.37L111.26 221.37L111.26 199.37zM149.36 221.37L168.41 232.37L168.41 254.37L149.36 265.37L130.31 254.37L130.31 232.37zM130.31 914.37L149.36 925.37L149.36 947.37L130.31 958.37L111.26 947.37L111.26 925.37zM149.36 947.37L168.41 958.37L168.41 980.37L149.36 991.37L130.31 980.37L130.31 958.37zM130.31 980.37L149.36 991.37L149.36 1013.37L130.31 1024.37L111.26 1013.37L111.26 991.37zM168.41 -9.63L187.47 1.37L187.47 23.37L168.41 34.37L149.36 23.37L149.36 1.37zM187.47 23.37L206.52 34.37L206.52 56.37L187.47 67.37L168.41 56.37L168.41 34.37zM187.47 221.37L206.52 232.37L206.52 254.37L187.47 265.37L168.41 254.37L168.41 232.37zM187.47 287.37L206.52 298.37L206.52 320.37L187.47 331.37L168.41 320.37L168.41 298.37zM168.41 518.37L187.47 529.37L187.47 551.37L168.41 562.37L149.36 551.37L149.36 529.37zM168.41 914.37L187.47 925.37L187.47 947.37L168.41 958.37L149.36 947.37L149.36 925.37zM187.47 947.37L206.52 958.37L206.52 980.37L187.47 991.37L168.41 980.37L168.41 958.37zM206.52 56.37L225.57 67.37L225.57 89.37L206.52 100.37L187.47 89.37L187.47 67.37zM206.52 122.37L225.57 133.37L225.57 155.37L206.52 166.37L187.47 155.37L187.47 133.37zM225.57 683.37L244.63 694.37L244.63 716.37L225.57 727.37L206.52 716.37L206.52 694.37zM206.52 782.37L225.57 793.37L225.57 815.37L206.52 826.37L187.47 815.37L187.47 793.37zM225.57 815.37L244.63 826.37L244.63 848.37L225.57 859.37L206.52 848.37L206.52 826.37zM263.68 155.37L282.73 166.37L282.73 188.37L263.68 199.37L244.63 188.37L244.63 166.37zM244.63 452.37L263.68 463.37L263.68 485.37L244.63 496.37L225.57 485.37L225.57 463.37zM263.68 683.37L282.73 694.37L282.73 716.37L263.68 727.37L244.63 716.37L244.63 694.37zM244.63 716.37L263.68 727.37L263.68 749.37L244.63 760.37L225.57 749.37L225.57 727.37zM244.63 782.37L263.68 793.37L263.68 815.37L244.63 826.37L225.57 815.37L225.57 793.37zM282.73 188.37L301.79 199.37L301.79 221.37L282.73 232.37L263.68 221.37L263.68 199.37zM282.73 254.37L301.79 265.37L301.79 287.37L282.73 298.37L263.68 287.37L263.68 265.37zM301.79 353.37L320.84 364.37L320.84 386.37L301.79 397.37L282.73 386.37L282.73 364.37zM301.79 485.37L320.84 496.37L320.84 518.37L301.79 529.37L282.73 518.37L282.73 496.37zM282.73 518.37L301.79 529.37L301.79 551.37L282.73 562.37L263.68 551.37L263.68 529.37zM282.73 584.37L301.79 595.37L301.79 617.37L282.73 628.37L263.68 617.37L263.68 595.37zM282.73 716.37L301.79 727.37L301.79 749.37L282.73 760.37L263.68 749.37L263.68 727.37zM282.73 782.37L301.79 793.37L301.79 815.37L282.73 826.37L263.68 815.37L263.68 793.37zM282.73 848.37L301.79 859.37L301.79 881.37L282.73 892.37L263.68 881.37L263.68 859.37zM301.79 881.37L320.84 892.37L320.84 914.37L301.79 925.37L282.73 914.37L282.73 892.37zM282.73 914.37L301.79 925.37L301.79 947.37L282.73 958.37L263.68 947.37L263.68 925.37zM282.73 980.37L301.79 991.37L301.79 1013.37L282.73 1024.37L263.68 1013.37L263.68 991.37zM339.89 155.37L358.95 166.37L358.95 188.37L339.89 199.37L320.84 188.37L320.84 166.37zM320.84 188.37L339.89 199.37L339.89 221.37L320.84 232.37L301.79 221.37L301.79 199.37zM339.89 287.37L358.95 298.37L358.95 320.37L339.89 331.37L320.84 320.37L320.84 298.37zM320.84 452.37L339.89 463.37L339.89 485.37L320.84 496.37L301.79 485.37L301.79 463.37zM339.89 881.37L358.95 892.37L358.95 914.37L339.89 925.37L320.84 914.37L320.84 892.37zM339.89 947.37L358.95 958.37L358.95 980.37L339.89 991.37L320.84 980.37L320.84 958.37zM378 23.37L397.05 34.37L397.05 56.37L378 67.37L358.95 56.37L358.95 34.37zM358.95 56.37L378 67.37L378 89.37L358.95 100.37L339.89 89.37L339.89 67.37zM378 353.37L397.05 364.37L397.05 386.37L378 397.37L358.95 386.37L358.95 364.37zM378 551.37L397.05 562.37L397.05 584.37L378 595.37L358.95 584.37L358.95 562.37zM378 617.37L397.05 628.37L397.05 650.37L378 661.37L358.95 650.37L358.95 628.37zM358.95 716.37L378 727.37L378 749.37L358.95 760.37L339.89 749.37L339.89 727.37zM358.95 914.37L378 925.37L378 947.37L358.95 958.37L339.89 947.37L339.89 925.37zM416.11 155.37L435.16 166.37L435.16 188.37L416.11 199.37L397.05 188.37L397.05 166.37zM416.11 749.37L435.16 760.37L435.16 782.37L416.11 793.37L397.05 782.37L397.05 760.37zM397.05 782.37L416.11 793.37L416.11 815.37L397.05 826.37L378 815.37L378 793.37zM454.21 23.37L473.26 34.37L473.26 56.37L454.21 67.37L435.16 56.37L435.16 34.37zM435.16 188.37L454.21 199.37L454.21 221.37L435.16 232.37L416.11 221.37L416.11 199.37zM454.21 221.37L473.26 232.37L473.26 254.37L454.21 265.37L435.16 254.37L435.16 232.37zM435.16 584.37L454.21 595.37L454.21 617.37L435.16 628.37L416.11 617.37L416.11 595.37zM454.21 683.37L473.26 694.37L473.26 716.37L454.21 727.37L435.16 716.37L435.16 694.37zM435.16 848.37L454.21 859.37L454.21 881.37L435.16 892.37L416.11 881.37L416.11 859.37zM435.16 914.37L454.21 925.37L454.21 947.37L435.16 958.37L416.11 947.37L416.11 925.37zM473.26 -9.63L492.32 1.37L492.32 23.37L473.26 34.37L454.21 23.37L454.21 1.37zM473.26 56.37L492.32 67.37L492.32 89.37L473.26 100.37L454.21 89.37L454.21 67.37zM473.26 188.37L492.32 199.37L492.32 221.37L473.26 232.37L454.21 221.37L454.21 199.37zM473.26 320.37L492.32 331.37L492.32 353.37L473.26 364.37L454.21 353.37L454.21 331.37zM473.26 386.37L492.32 397.37L492.32 419.37L473.26 430.37L454.21 419.37L454.21 397.37zM473.26 650.37L492.32 661.37L492.32 683.37L473.26 694.37L454.21 683.37L454.21 661.37zM492.32 749.37L511.37 760.37L511.37 782.37L492.32 793.37L473.26 782.37L473.26 760.37zM473.26 848.37L492.32 859.37L492.32 881.37L473.26 892.37L454.21 881.37L454.21 859.37zM473.26 914.37L492.32 925.37L492.32 947.37L473.26 958.37L454.21 947.37L454.21 925.37zM530.42 287.37L549.48 298.37L549.48 320.37L530.42 331.37L511.37 320.37L511.37 298.37zM511.37 452.37L530.42 463.37L530.42 485.37L511.37 496.37L492.32 485.37L492.32 463.37zM549.48 -9.63L568.53 1.37L568.53 23.37L549.48 34.37L530.42 23.37L530.42 1.37zM549.48 56.37L568.53 67.37L568.53 89.37L549.48 100.37L530.42 89.37L530.42 67.37zM568.53 287.37L587.58 298.37L587.58 320.37L568.53 331.37L549.48 320.37L549.48 298.37zM549.48 452.37L568.53 463.37L568.53 485.37L549.48 496.37L530.42 485.37L530.42 463.37zM568.53 683.37L587.58 694.37L587.58 716.37L568.53 727.37L549.48 716.37L549.48 694.37zM549.48 716.37L568.53 727.37L568.53 749.37L549.48 760.37L530.42 749.37L530.42 727.37zM549.48 782.37L568.53 793.37L568.53 815.37L549.48 826.37L530.42 815.37L530.42 793.37zM549.48 848.37L568.53 859.37L568.53 881.37L549.48 892.37L530.42 881.37L530.42 859.37zM587.58 -9.63L606.64 1.37L606.64 23.37L587.58 34.37L568.53 23.37L568.53 1.37zM606.64 23.37L625.69 34.37L625.69 56.37L606.64 67.37L587.58 56.37L587.58 34.37zM587.58 122.37L606.64 133.37L606.64 155.37L587.58 166.37L568.53 155.37L568.53 133.37zM606.64 485.37L625.69 496.37L625.69 518.37L606.64 529.37L587.58 518.37L587.58 496.37zM587.58 518.37L606.64 529.37L606.64 551.37L587.58 562.37L568.53 551.37L568.53 529.37zM606.64 881.37L625.69 892.37L625.69 914.37L606.64 925.37L587.58 914.37L587.58 892.37zM587.58 914.37L606.64 925.37L606.64 947.37L587.58 958.37L568.53 947.37L568.53 925.37zM644.74 155.37L663.8 166.37L663.8 188.37L644.74 199.37L625.69 188.37L625.69 166.37zM644.74 221.37L663.8 232.37L663.8 254.37L644.74 265.37L625.69 254.37L625.69 232.37zM644.74 551.37L663.8 562.37L663.8 584.37L644.74 595.37L625.69 584.37L625.69 562.37zM625.69 584.37L644.74 595.37L644.74 617.37L625.69 628.37L606.64 617.37L606.64 595.37zM644.74 617.37L663.8 628.37L663.8 650.37L644.74 661.37L625.69 650.37L625.69 628.37zM625.69 716.37L644.74 727.37L644.74 749.37L625.69 760.37L606.64 749.37L606.64 727.37zM625.69 848.37L644.74 859.37L644.74 881.37L625.69 892.37L606.64 881.37L606.64 859.37zM625.69 980.37L644.74 991.37L644.74 1013.37L625.69 1024.37L606.64 1013.37L606.64 991.37zM663.8 188.37L682.85 199.37L682.85 221.37L663.8 232.37L644.74 221.37L644.74 199.37zM663.8 386.37L682.85 397.37L682.85 419.37L663.8 430.37L644.74 419.37L644.74 397.37zM682.85 749.37L701.9 760.37L701.9 782.37L682.85 793.37L663.8 782.37L663.8 760.37zM663.8 782.37L682.85 793.37L682.85 815.37L663.8 826.37L644.74 815.37L644.74 793.37zM663.8 848.37L682.85 859.37L682.85 881.37L663.8 892.37L644.74 881.37L644.74 859.37zM701.9 122.37L720.95 133.37L720.95 155.37L701.9 166.37L682.85 155.37L682.85 133.37zM720.95 155.37L740.01 166.37L740.01 188.37L720.95 199.37L701.9 188.37L701.9 166.37zM720.95 221.37L740.01 232.37L740.01 254.37L720.95 265.37L701.9 254.37L701.9 232.37zM720.95 353.37L740.01 364.37L740.01 386.37L720.95 397.37L701.9 386.37L701.9 364.37zM701.9 386.37L720.95 397.37L720.95 419.37L701.9 430.37L682.85 419.37L682.85 397.37zM720.95 419.37L740.01 430.37L740.01 452.37L720.95 463.37L701.9 452.37L701.9 430.37zM701.9 716.37L720.95 727.37L720.95 749.37L701.9 760.37L682.85 749.37L682.85 727.37zM740.01 122.37L759.06 133.37L759.06 155.37L740.01 166.37L720.95 155.37L720.95 133.37zM740.01 188.37L759.06 199.37L759.06 221.37L740.01 232.37L720.95 221.37L720.95 199.37zM759.06 221.37L778.11 232.37L778.11 254.37L759.06 265.37L740.01 254.37L740.01 232.37zM759.06 287.37L778.11 298.37L778.11 320.37L759.06 331.37L740.01 320.37L740.01 298.37zM740.01 386.37L759.06 397.37L759.06 419.37L740.01 430.37L720.95 419.37L720.95 397.37zM759.06 485.37L778.11 496.37L778.11 518.37L759.06 529.37L740.01 518.37L740.01 496.37zM740.01 716.37L759.06 727.37L759.06 749.37L740.01 760.37L720.95 749.37L720.95 727.37zM740.01 782.37L759.06 793.37L759.06 815.37L740.01 826.37L720.95 815.37L720.95 793.37zM759.06 947.37L778.11 958.37L778.11 980.37L759.06 991.37L740.01 980.37L740.01 958.37zM778.11 188.37L797.17 199.37L797.17 221.37L778.11 232.37L759.06 221.37L759.06 199.37zM797.17 617.37L816.22 628.37L816.22 650.37L797.17 661.37L778.11 650.37L778.11 628.37zM797.17 683.37L816.22 694.37L816.22 716.37L797.17 727.37L778.11 716.37L778.11 694.37zM797.17 749.37L816.22 760.37L816.22 782.37L797.17 793.37L778.11 782.37L778.11 760.37zM797.17 881.37L816.22 892.37L816.22 914.37L797.17 925.37L778.11 914.37L778.11 892.37zM778.11 914.37L797.17 925.37L797.17 947.37L778.11 958.37L759.06 947.37L759.06 925.37zM835.27 89.37L854.33 100.37L854.33 122.37L835.27 133.37L816.22 122.37L816.22 100.37zM816.22 386.37L835.27 397.37L835.27 419.37L816.22 430.37L797.17 419.37L797.17 397.37zM816.22 452.37L835.27 463.37L835.27 485.37L816.22 496.37L797.17 485.37L797.17 463.37zM835.27 485.37L854.33 496.37L854.33 518.37L835.27 529.37L816.22 518.37L816.22 496.37zM816.22 782.37L835.27 793.37L835.27 815.37L816.22 826.37L797.17 815.37L797.17 793.37zM835.27 881.37L854.33 892.37L854.33 914.37L835.27 925.37L816.22 914.37L816.22 892.37zM816.22 980.37L835.27 991.37L835.27 1013.37L816.22 1024.37L797.17 1013.37L797.17 991.37zM873.38 23.37L892.43 34.37L892.43 56.37L873.38 67.37L854.33 56.37L854.33 34.37zM873.38 89.37L892.43 100.37L892.43 122.37L873.38 133.37L854.33 122.37L854.33 100.37zM873.38 221.37L892.43 232.37L892.43 254.37L873.38 265.37L854.33 254.37L854.33 232.37zM873.38 551.37L892.43 562.37L892.43 584.37L873.38 595.37L854.33 584.37L854.33 562.37zM873.38 683.37L892.43 694.37L892.43 716.37L873.38 727.37L854.33 716.37L854.33 694.37zM873.38 815.37L892.43 826.37L892.43 848.37L873.38 859.37L854.33 848.37L854.33 826.37zM892.43 188.37L911.49 199.37L911.49 221.37L892.43 232.37L873.38 221.37L873.38 199.37zM911.49 221.37L930.54 232.37L930.54 254.37L911.49 265.37L892.43 254.37L892.43 232.37zM892.43 254.37L911.49 265.37L911.49 287.37L892.43 298.37L873.38 287.37L873.38 265.37zM911.49 353.37L930.54 364.37L930.54 386.37L911.49 397.37L892.43 386.37L892.43 364.37zM892.43 386.37L911.49 397.37L911.49 419.37L892.43 430.37L873.38 419.37L873.38 397.37zM911.49 485.37L930.54 496.37L930.54 518.37L911.49 529.37L892.43 518.37L892.43 496.37zM892.43 650.37L911.49 661.37L911.49 683.37L892.43 694.37L873.38 683.37L873.38 661.37zM892.43 980.37L911.49 991.37L911.49 1013.37L892.43 1024.37L873.38 1013.37L873.38 991.37zM930.54 254.37L949.59 265.37L949.59 287.37L930.54 298.37L911.49 287.37L911.49 265.37zM949.59 287.37L968.64 298.37L968.64 320.37L949.59 331.37L930.54 320.37L930.54 298.37zM949.59 419.37L968.64 430.37L968.64 452.37L949.59 463.37L930.54 452.37L930.54 430.37zM949.59 485.37L968.64 496.37L968.64 518.37L949.59 529.37L930.54 518.37L930.54 496.37zM949.59 617.37L968.64 628.37L968.64 650.37L949.59 661.37L930.54 650.37L930.54 628.37zM949.59 815.37L968.64 826.37L968.64 848.37L949.59 859.37L930.54 848.37L930.54 826.37zM987.7 617.37L1006.75 628.37L1006.75 650.37L987.7 661.37L968.64 650.37L968.64 628.37zM968.64 980.37L987.7 991.37L987.7 1013.37L968.64 1024.37L949.59 1013.37L949.59 991.37zM1006.75 56.37L1025.8 67.37L1025.8 89.37L1006.75 100.37L987.7 89.37L987.7 67.37zM1006.75 386.37L1025.8 397.37L1025.8 419.37L1006.75 430.37L987.7 419.37L987.7 397.37zM1025.8 419.37L1044.86 430.37L1044.86 452.37L1025.8 463.37L1006.75 452.37L1006.75 430.37zM1006.75 584.37L1025.8 595.37L1025.8 617.37L1006.75 628.37L987.7 617.37L987.7 595.37zM1025.8 815.37L1044.86 826.37L1044.86 848.37L1025.8 859.37L1006.75 848.37L1006.75 826.37zM1025.8 881.37L1044.86 892.37L1044.86 914.37L1025.8 925.37L1006.75 914.37L1006.75 892.37zM1063.91 155.37L1082.96 166.37L1082.96 188.37L1063.91 199.37L1044.86 188.37L1044.86 166.37zM1044.86 188.37L1063.91 199.37L1063.91 221.37L1044.86 232.37L1025.8 221.37L1025.8 199.37zM1044.86 254.37L1063.91 265.37L1063.91 287.37L1044.86 298.37L1025.8 287.37L1025.8 265.37zM1044.86 452.37L1063.91 463.37L1063.91 485.37L1044.86 496.37L1025.8 485.37L1025.8 463.37zM1063.91 617.37L1082.96 628.37L1082.96 650.37L1063.91 661.37L1044.86 650.37L1044.86 628.37zM1082.96 -9.63L1102.02 1.37L1102.02 23.37L1082.96 34.37L1063.91 23.37L1063.91 1.37zM1102.02 155.37L1121.07 166.37L1121.07 188.37L1102.02 199.37L1082.96 188.37L1082.96 166.37zM1082.96 188.37L1102.02 199.37L1102.02 221.37L1082.96 232.37L1063.91 221.37L1063.91 199.37zM1102.02 287.37L1121.07 298.37L1121.07 320.37L1102.02 331.37L1082.96 320.37L1082.96 298.37zM1102.02 419.37L1121.07 430.37L1121.07 452.37L1102.02 463.37L1082.96 452.37L1082.96 430.37zM1082.96 452.37L1102.02 463.37L1102.02 485.37L1082.96 496.37L1063.91 485.37L1063.91 463.37zM1082.96 650.37L1102.02 661.37L1102.02 683.37L1082.96 694.37L1063.91 683.37L1063.91 661.37zM1102.02 683.37L1121.07 694.37L1121.07 716.37L1102.02 727.37L1082.96 716.37L1082.96 694.37zM1121.07 122.37L1140.12 133.37L1140.12 155.37L1121.07 166.37L1102.02 155.37L1102.02 133.37zM1121.07 188.37L1140.12 199.37L1140.12 221.37L1121.07 232.37L1102.02 221.37L1102.02 199.37zM1140.12 683.37L1159.18 694.37L1159.18 716.37L1140.12 727.37L1121.07 716.37L1121.07 694.37zM1121.07 716.37L1140.12 727.37L1140.12 749.37L1121.07 760.37L1102.02 749.37L1102.02 727.37zM1121.07 848.37L1140.12 859.37L1140.12 881.37L1121.07 892.37L1102.02 881.37L1102.02 859.37zM1159.18 122.37L1178.23 133.37L1178.23 155.37L1159.18 166.37L1140.12 155.37L1140.12 133.37zM1178.23 155.37L1197.28 166.37L1197.28 188.37L1178.23 199.37L1159.18 188.37L1159.18 166.37zM1178.23 419.37L1197.28 430.37L1197.28 452.37L1178.23 463.37L1159.18 452.37L1159.18 430.37zM1159.18 584.37L1178.23 595.37L1178.23 617.37L1159.18 628.37L1140.12 617.37L1140.12 595.37zM1178.23 617.37L1197.28 628.37L1197.28 650.37L1178.23 661.37L1159.18 650.37L1159.18 628.37zM1178.23 881.37L1197.28 892.37L1197.28 914.37L1178.23 925.37L1159.18 914.37L1159.18 892.37zM1197.28 -9.63L1216.34 1.37L1216.34 23.37L1197.28 34.37L1178.23 23.37L1178.23 1.37zM1197.28 56.37L1216.34 67.37L1216.34 89.37L1197.28 100.37L1178.23 89.37L1178.23 67.37zM1216.34 155.37L1235.39 166.37L1235.39 188.37L1216.34 199.37L1197.28 188.37L1197.28 166.37zM1197.28 254.37L1216.34 265.37L1216.34 287.37L1197.28 298.37L1178.23 287.37L1178.23 265.37zM1216.34 287.37L1235.39 298.37L1235.39 320.37L1216.34 331.37L1197.28 320.37L1197.28 298.37zM1197.28 320.37L1216.34 331.37L1216.34 353.37L1197.28 364.37L1178.23 353.37L1178.23 331.37zM1216.34 485.37L1235.39 496.37L1235.39 518.37L1216.34 529.37L1197.28 518.37L1197.28 496.37zM1197.28 518.37L1216.34 529.37L1216.34 551.37L1197.28 562.37L1178.23 551.37L1178.23 529.37zM1216.34 551.37L1235.39 562.37L1235.39 584.37L1216.34 595.37L1197.28 584.37L1197.28 562.37zM1197.28 782.37L1216.34 793.37L1216.34 815.37L1197.28 826.37L1178.23 815.37L1178.23 793.37zM1216.34 881.37L1235.39 892.37L1235.39 914.37L1216.34 925.37L1197.28 914.37L1197.28 892.37zM1216.34 947.37L1235.39 958.37L1235.39 980.37L1216.34 991.37L1197.28 980.37L1197.28 958.37zM1235.39 -9.63L1254.44 1.37L1254.44 23.37L1235.39 34.37L1216.34 23.37L1216.34 1.37zM1235.39 122.37L1254.44 133.37L1254.44 155.37L1235.39 166.37L1216.34 155.37L1216.34 133.37zM1235.39 254.37L1254.44 265.37L1254.44 287.37L1235.39 298.37L1216.34 287.37L1216.34 265.37zM1254.44 287.37L1273.49 298.37L1273.49 320.37L1254.44 331.37L1235.39 320.37L1235.39 298.37zM1235.39 848.37L1254.44 859.37L1254.44 881.37L1235.39 892.37L1216.34 881.37L1216.34 859.37zM1254.44 881.37L1273.49 892.37L1273.49 914.37L1254.44 925.37L1235.39 914.37L1235.39 892.37zM1273.49 56.37L1292.55 67.37L1292.55 89.37L1273.49 100.37L1254.44 89.37L1254.44 67.37zM1292.55 287.37L1311.6 298.37L1311.6 320.37L1292.55 331.37L1273.49 320.37L1273.49 298.37zM1292.55 551.37L1311.6 562.37L1311.6 584.37L1292.55 595.37L1273.49 584.37L1273.49 562.37zM1292.55 749.37L1311.6 760.37L1311.6 782.37L1292.55 793.37L1273.49 782.37L1273.49 760.37zM1311.6 -9.63L1330.65 1.37L1330.65 23.37L1311.6 34.37L1292.55 23.37L1292.55 1.37zM1311.6 122.37L1330.65 133.37L1330.65 155.37L1311.6 166.37L1292.55 155.37L1292.55 133.37zM1330.65 221.37L1349.71 232.37L1349.71 254.37L1330.65 265.37L1311.6 254.37L1311.6 232.37zM1311.6 320.37L1330.65 331.37L1330.65 353.37L1311.6 364.37L1292.55 353.37L1292.55 331.37zM1330.65 485.37L1349.71 496.37L1349.71 518.37L1330.65 529.37L1311.6 518.37L1311.6 496.37zM1330.65 551.37L1349.71 562.37L1349.71 584.37L1330.65 595.37L1311.6 584.37L1311.6 562.37zM1330.65 749.37L1349.71 760.37L1349.71 782.37L1330.65 793.37L1311.6 782.37L1311.6 760.37zM1349.71 56.37L1368.76 67.37L1368.76 89.37L1349.71 100.37L1330.65 89.37L1330.65 67.37zM1349.71 188.37L1368.76 199.37L1368.76 221.37L1349.71 232.37L1330.65 221.37L1330.65 199.37zM1368.76 221.37L1387.81 232.37L1387.81 254.37L1368.76 265.37L1349.71 254.37L1349.71 232.37zM1368.76 419.37L1387.81 430.37L1387.81 452.37L1368.76 463.37L1349.71 452.37L1349.71 430.37zM1368.76 947.37L1387.81 958.37L1387.81 980.37L1368.76 991.37L1349.71 980.37L1349.71 958.37zM1387.81 56.37L1406.87 67.37L1406.87 89.37L1387.81 100.37L1368.76 89.37L1368.76 67.37zM1406.87 155.37L1425.92 166.37L1425.92 188.37L1406.87 199.37L1387.81 188.37L1387.81 166.37zM1406.87 419.37L1425.92 430.37L1425.92 452.37L1406.87 463.37L1387.81 452.37L1387.81 430.37zM1387.81 452.37L1406.87 463.37L1406.87 485.37L1387.81 496.37L1368.76 485.37L1368.76 463.37zM1387.81 518.37L1406.87 529.37L1406.87 551.37L1387.81 562.37L1368.76 551.37L1368.76 529.37zM1406.87 551.37L1425.92 562.37L1425.92 584.37L1406.87 595.37L1387.81 584.37L1387.81 562.37zM1387.81 650.37L1406.87 661.37L1406.87 683.37L1387.81 694.37L1368.76 683.37L1368.76 661.37zM1406.87 881.37L1425.92 892.37L1425.92 914.37L1406.87 925.37L1387.81 914.37L1387.81 892.37zM1444.97 23.37L1464.03 34.37L1464.03 56.37L1444.97 67.37L1425.92 56.37L1425.92 34.37zM1425.92 320.37L1444.97 331.37L1444.97 353.37L1425.92 364.37L1406.87 353.37L1406.87 331.37zM1425.92 386.37L1444.97 397.37L1444.97 419.37L1425.92 430.37L1406.87 419.37L1406.87 397.37zM1444.97 485.37L1464.03 496.37L1464.03 518.37L1444.97 529.37L1425.92 518.37L1425.92 496.37zM1444.97 683.37L1464.03 694.37L1464.03 716.37L1444.97 727.37L1425.92 716.37L1425.92 694.37zM1425.92 848.37L1444.97 859.37L1444.97 881.37L1425.92 892.37L1406.87 881.37L1406.87 859.37zM1483.08 221.37L1502.13 232.37L1502.13 254.37L1483.08 265.37L1464.03 254.37L1464.03 232.37zM1464.03 452.37L1483.08 463.37L1483.08 485.37L1464.03 496.37L1444.97 485.37L1444.97 463.37zM1464.03 650.37L1483.08 661.37L1483.08 683.37L1464.03 694.37L1444.97 683.37L1444.97 661.37zM1483.08 683.37L1502.13 694.37L1502.13 716.37L1483.08 727.37L1464.03 716.37L1464.03 694.37zM1464.03 716.37L1483.08 727.37L1483.08 749.37L1464.03 760.37L1444.97 749.37L1444.97 727.37zM1464.03 914.37L1483.08 925.37L1483.08 947.37L1464.03 958.37L1444.97 947.37L1444.97 925.37zM1483.08 947.37L1502.13 958.37L1502.13 980.37L1483.08 991.37L1464.03 980.37L1464.03 958.37zM1521.18 287.37L1540.24 298.37L1540.24 320.37L1521.18 331.37L1502.13 320.37L1502.13 298.37zM1521.18 419.37L1540.24 430.37L1540.24 452.37L1521.18 463.37L1502.13 452.37L1502.13 430.37zM1521.18 749.37L1540.24 760.37L1540.24 782.37L1521.18 793.37L1502.13 782.37L1502.13 760.37zM1502.13 914.37L1521.18 925.37L1521.18 947.37L1502.13 958.37L1483.08 947.37L1483.08 925.37zM1540.24 320.37L1559.29 331.37L1559.29 353.37L1540.24 364.37L1521.18 353.37L1521.18 331.37zM1540.24 650.37L1559.29 661.37L1559.29 683.37L1540.24 694.37L1521.18 683.37L1521.18 661.37zM1559.29 683.37L1578.34 694.37L1578.34 716.37L1559.29 727.37L1540.24 716.37L1540.24 694.37zM1540.24 914.37L1559.29 925.37L1559.29 947.37L1540.24 958.37L1521.18 947.37L1521.18 925.37zM1578.34 56.37L1597.4 67.37L1597.4 89.37L1578.34 100.37L1559.29 89.37L1559.29 67.37zM1597.4 155.37L1616.45 166.37L1616.45 188.37L1597.4 199.37L1578.34 188.37L1578.34 166.37zM1597.4 353.37L1616.45 364.37L1616.45 386.37L1597.4 397.37L1578.34 386.37L1578.34 364.37zM1597.4 815.37L1616.45 826.37L1616.45 848.37L1597.4 859.37L1578.34 848.37L1578.34 826.37zM1597.4 881.37L1616.45 892.37L1616.45 914.37L1597.4 925.37L1578.34 914.37L1578.34 892.37zM1635.5 155.37L1654.56 166.37L1654.56 188.37L1635.5 199.37L1616.45 188.37L1616.45 166.37zM1616.45 188.37L1635.5 199.37L1635.5 221.37L1616.45 232.37L1597.4 221.37L1597.4 199.37zM1635.5 287.37L1654.56 298.37L1654.56 320.37L1635.5 331.37L1616.45 320.37L1616.45 298.37zM1635.5 419.37L1654.56 430.37L1654.56 452.37L1635.5 463.37L1616.45 452.37L1616.45 430.37zM1635.5 881.37L1654.56 892.37L1654.56 914.37L1635.5 925.37L1616.45 914.37L1616.45 892.37zM1673.61 89.37L1692.66 100.37L1692.66 122.37L1673.61 133.37L1654.56 122.37L1654.56 100.37zM1654.56 188.37L1673.61 199.37L1673.61 221.37L1654.56 232.37L1635.5 221.37L1635.5 199.37zM1673.61 353.37L1692.66 364.37L1692.66 386.37L1673.61 397.37L1654.56 386.37L1654.56 364.37zM1673.61 485.37L1692.66 496.37L1692.66 518.37L1673.61 529.37L1654.56 518.37L1654.56 496.37zM1673.61 551.37L1692.66 562.37L1692.66 584.37L1673.61 595.37L1654.56 584.37L1654.56 562.37zM1654.56 584.37L1673.61 595.37L1673.61 617.37L1654.56 628.37L1635.5 617.37L1635.5 595.37zM1654.56 848.37L1673.61 859.37L1673.61 881.37L1654.56 892.37L1635.5 881.37L1635.5 859.37zM1711.72 287.37L1730.77 298.37L1730.77 320.37L1711.72 331.37L1692.66 320.37L1692.66 298.37zM1711.72 353.37L1730.77 364.37L1730.77 386.37L1711.72 397.37L1692.66 386.37L1692.66 364.37zM1692.66 386.37L1711.72 397.37L1711.72 419.37L1692.66 430.37L1673.61 419.37L1673.61 397.37zM1711.72 485.37L1730.77 496.37L1730.77 518.37L1711.72 529.37L1692.66 518.37L1692.66 496.37zM1711.72 683.37L1730.77 694.37L1730.77 716.37L1711.72 727.37L1692.66 716.37L1692.66 694.37zM1711.72 947.37L1730.77 958.37L1730.77 980.37L1711.72 991.37L1692.66 980.37L1692.66 958.37zM1749.82 221.37L1768.88 232.37L1768.88 254.37L1749.82 265.37L1730.77 254.37L1730.77 232.37zM1730.77 254.37L1749.82 265.37L1749.82 287.37L1730.77 298.37L1711.72 287.37L1711.72 265.37zM1749.82 287.37L1768.88 298.37L1768.88 320.37L1749.82 331.37L1730.77 320.37L1730.77 298.37zM1730.77 320.37L1749.82 331.37L1749.82 353.37L1730.77 364.37L1711.72 353.37L1711.72 331.37zM1749.82 485.37L1768.88 496.37L1768.88 518.37L1749.82 529.37L1730.77 518.37L1730.77 496.37zM1730.77 650.37L1749.82 661.37L1749.82 683.37L1730.77 694.37L1711.72 683.37L1711.72 661.37zM1768.88 254.37L1787.93 265.37L1787.93 287.37L1768.88 298.37L1749.82 287.37L1749.82 265.37zM1787.93 353.37L1806.98 364.37L1806.98 386.37L1787.93 397.37L1768.88 386.37L1768.88 364.37zM1787.93 683.37L1806.98 694.37L1806.98 716.37L1787.93 727.37L1768.88 716.37L1768.88 694.37zM1768.88 782.37L1787.93 793.37L1787.93 815.37L1768.88 826.37L1749.82 815.37L1749.82 793.37zM1768.88 914.37L1787.93 925.37L1787.93 947.37L1768.88 958.37L1749.82 947.37L1749.82 925.37zM1787.93 947.37L1806.98 958.37L1806.98 980.37L1787.93 991.37L1768.88 980.37L1768.88 958.37zM1826.03 221.37L1845.09 232.37L1845.09 254.37L1826.03 265.37L1806.98 254.37L1806.98 232.37zM1826.03 419.37L1845.09 430.37L1845.09 452.37L1826.03 463.37L1806.98 452.37L1806.98 430.37zM1806.98 584.37L1826.03 595.37L1826.03 617.37L1806.98 628.37L1787.93 617.37L1787.93 595.37zM1826.03 683.37L1845.09 694.37L1845.09 716.37L1826.03 727.37L1806.98 716.37L1806.98 694.37zM1806.98 782.37L1826.03 793.37L1826.03 815.37L1806.98 826.37L1787.93 815.37L1787.93 793.37zM1826.03 881.37L1845.09 892.37L1845.09 914.37L1826.03 925.37L1806.98 914.37L1806.98 892.37zM1864.14 89.37L1883.19 100.37L1883.19 122.37L1864.14 133.37L1845.09 122.37L1845.09 100.37zM1864.14 155.37L1883.19 166.37L1883.19 188.37L1864.14 199.37L1845.09 188.37L1845.09 166.37zM1864.14 287.37L1883.19 298.37L1883.19 320.37L1864.14 331.37L1845.09 320.37L1845.09 298.37zM1845.09 452.37L1864.14 463.37L1864.14 485.37L1845.09 496.37L1826.03 485.37L1826.03 463.37zM1864.14 485.37L1883.19 496.37L1883.19 518.37L1864.14 529.37L1845.09 518.37L1845.09 496.37zM1845.09 584.37L1864.14 595.37L1864.14 617.37L1845.09 628.37L1826.03 617.37L1826.03 595.37zM1864.14 683.37L1883.19 694.37L1883.19 716.37L1864.14 727.37L1845.09 716.37L1845.09 694.37zM1845.09 716.37L1864.14 727.37L1864.14 749.37L1845.09 760.37L1826.03 749.37L1826.03 727.37zM1864.14 749.37L1883.19 760.37L1883.19 782.37L1864.14 793.37L1845.09 782.37L1845.09 760.37zM1845.09 848.37L1864.14 859.37L1864.14 881.37L1845.09 892.37L1826.03 881.37L1826.03 859.37zM1902.25 23.37L1921.3 34.37L1921.3 56.37L1902.25 67.37L1883.19 56.37L1883.19 34.37zM1883.19 56.37L1902.25 67.37L1902.25 89.37L1883.19 100.37L1864.14 89.37L1864.14 67.37zM1902.25 89.37L1921.3 100.37L1921.3 122.37L1902.25 133.37L1883.19 122.37L1883.19 100.37zM1883.19 122.37L1902.25 133.37L1902.25 155.37L1883.19 166.37L1864.14 155.37L1864.14 133.37zM1902.25 155.37L1921.3 166.37L1921.3 188.37L1902.25 199.37L1883.19 188.37L1883.19 166.37zM1883.19 320.37L1902.25 331.37L1902.25 353.37L1883.19 364.37L1864.14 353.37L1864.14 331.37zM1883.19 518.37L1902.25 529.37L1902.25 551.37L1883.19 562.37L1864.14 551.37L1864.14 529.37zM1902.25 683.37L1921.3 694.37L1921.3 716.37L1902.25 727.37L1883.19 716.37L1883.19 694.37zM1883.19 782.37L1902.25 793.37L1902.25 815.37L1883.19 826.37L1864.14 815.37L1864.14 793.37zM1902.25 815.37L1921.3 826.37L1921.3 848.37L1902.25 859.37L1883.19 848.37L1883.19 826.37zM1902.25 947.37L1921.3 958.37L1921.3 980.37L1902.25 991.37L1883.19 980.37L1883.19 958.37zM1940.35 89.37L1959.41 100.37L1959.41 122.37L1940.35 133.37L1921.3 122.37L1921.3 100.37zM1921.3 122.37L1940.35 133.37L1940.35 155.37L1921.3 166.37L1902.25 155.37L1902.25 133.37zM1940.35 221.37L1959.41 232.37L1959.41 254.37L1940.35 265.37L1921.3 254.37L1921.3 232.37zM1940.35 287.37L1959.41 298.37L1959.41 320.37L1940.35 331.37L1921.3 320.37L1921.3 298.37zM1940.35 353.37L1959.41 364.37L1959.41 386.37L1940.35 397.37L1921.3 386.37L1921.3 364.37zM1921.3 584.37L1940.35 595.37L1940.35 617.37L1921.3 628.37L1902.25 617.37L1902.25 595.37zM1921.3 980.37L1940.35 991.37L1940.35 1013.37L1921.3 1024.37L1902.25 1013.37L1902.25 991.37zM1959.41 188.37L1978.46 199.37L1978.46 221.37L1959.41 232.37L1940.35 221.37L1940.35 199.37zM1978.46 221.37L1997.51 232.37L1997.51 254.37L1978.46 265.37L1959.41 254.37L1959.41 232.37zM1978.46 353.37L1997.51 364.37L1997.51 386.37L1978.46 397.37L1959.41 386.37L1959.41 364.37zM1978.46 485.37L1997.51 496.37L1997.51 518.37L1978.46 529.37L1959.41 518.37L1959.41 496.37zM1978.46 551.37L1997.51 562.37L1997.51 584.37L1978.46 595.37L1959.41 584.37L1959.41 562.37zM1978.46 617.37L1997.51 628.37L1997.51 650.37L1978.46 661.37L1959.41 650.37L1959.41 628.37zM1978.46 749.37L1997.51 760.37L1997.51 782.37L1978.46 793.37L1959.41 782.37L1959.41 760.37zM1959.41 848.37L1978.46 859.37L1978.46 881.37L1959.41 892.37L1940.35 881.37L1940.35 859.37z" stroke="rgba(251, 89, 101, 0.28)" stroke-width="2"></path>
    </g>
    <defs>

    </defs>
</svg>