<svg xmlns="http://www.w3.org/2000/svg" viewBox="0 0 1159.17 725.26"><defs><style>.cls-1{fill:#f1f2f2;}.cls-2{fill:#e6e7e8;}.cls-3{fill:#5b4738;}.cls-4{fill:#bee79b;}.cls-5{fill:#414042;}.cls-6{fill:#f9f9f9;}.cls-7{fill:#f4f4f4;}.cls-8{fill:#f92252;}.cls-9{fill:#fcc000;}.cls-10{fill:#98d14f;}.cls-11,.cls-26{fill:#fff;}.cls-12{fill:#b9e0f3;}.cls-13{fill:#ffd6bb;}.cls-14{fill:#fbb040;}.cls-15{fill:#f9c9af;}.cls-16{fill:#f9a2ec;}.cls-17{fill:#f76400;}.cls-18{fill:#3a3a3a;}.cls-19{fill:#f9c7ac;}.cls-20{fill:#efb59c;}.cls-21{fill:#8fc457;}.cls-22{fill:#54473c;}.cls-23{fill:#594a42;}.cls-24{fill:#ea004e;}.cls-25{fill:#ffd9e8;}.cls-26{font-size:68.76px;font-family:RobotoMono-Medium, RobotoMono Medium;font-weight:500;}.cls-27{letter-spacing:0.01em;}.cls-28{fill:#fdd048;}.cls-29{fill:#725f57;}.cls-30{fill:#e0393a;}</style></defs><g id="Layer_2" data-name="Layer 2"><g id="Layer_1-2" data-name="Layer 1"><path class="cls-1" d="M1123.86,442.52H940a35.31,35.31,0,0,1-35.31-35.31h0A35.31,35.31,0,0,1,940,371.9h169.58a273.83,273.83,0,0,0,.6-36c-2.82-56.65-17.48-106.87-40.45-149.28H986.91A35.31,35.31,0,0,1,951.6,151.3h0A35.31,35.31,0,0,1,986.91,116h30.27c-73.82-73.71-180-101.45-275.7-66.38C632.05,89.71,588.86,161.74,581.25,175.88c-7.77-14-51.77-85.59-161.66-124.44-90.39-32-189.4-8.24-261.57,56.72H352.35a35.31,35.31,0,0,1,35.31,35.31h0a35.31,35.31,0,0,1-35.31,35.31h-317A35.31,35.31,0,0,0,0,214.09H0A35.31,35.31,0,0,0,35.31,249.4H445.66A35.31,35.31,0,0,1,481,284.71h0A35.31,35.31,0,0,1,445.66,320H57.29c-.55,0-1.08,0-1.62,0-.68,7.2-1.18,14.51-1.46,21.93C49.77,457.32,120,572.31,226.5,682.55H937.87c31.06-32.59,59-65.56,83-98.79H846.66a35.31,35.31,0,0,1-35.31-35.31h0a35.31,35.31,0,0,1,35.31-35.31h277.2a35.31,35.31,0,0,0,35.31-35.31h0A35.31,35.31,0,0,0,1123.86,442.52ZM887.61,186.62A35.31,35.31,0,0,1,852.3,151.3h0A35.31,35.31,0,0,1,887.61,116h2.58A35.31,35.31,0,0,1,925.5,151.3h0a35.31,35.31,0,0,1-35.31,35.32Z"/><rect class="cls-2" x="62.2" y="679.8" width="1040.1" height="45.46" rx="22.73"/><path class="cls-3" d="M142.15,279s9.14,31.27,38,40.08L158.83,201,124.6,216.21,142.15,279Z"/><path class="cls-3" d="M288.66,187.9l7.26,38.22a19.45,19.45,0,0,1-12.57,21.95h0L261.5,185.33l16.42-7Z"/><path class="cls-4" d="M239.25,312.21s37.75-13.3,100,.33l-5.68,328-23.53-28.93a277.63,277.63,0,0,0-84.6-69.71h0a163.84,163.84,0,0,1-58.94-53.36h0A122.33,122.33,0,0,1,171.17,346l11.43-14.88Z"/><path class="cls-5" d="M904,280.24H347.39a27.83,27.83,0,0,0-27.82,27.83V646.86H931.78V308.07A27.83,27.83,0,0,0,904,280.24Z"/><rect class="cls-1" x="344.32" y="310.75" width="559.67" height="314.64"/><rect class="cls-2" x="267.56" y="646.86" width="713.19" height="20.55"/><path class="cls-5" d="M292.36,679.8H955.94c15.06,0,24.81-12.4,24.81-12.4H267.56S277.3,679.8,292.36,679.8Z"/><polygon class="cls-6" points="344.32 625.39 903.99 310.75 344.32 310.75 344.32 625.39"/><rect class="cls-2" x="431.82" y="226.95" width="547.96" height="345.19" rx="12.6"/><path class="cls-7" d="M967.18,227H444.42a12.6,12.6,0,0,0-12.6,12.6v40.69h548V239.55A12.6,12.6,0,0,0,967.18,227Z"/><circle class="cls-8" cx="458.98" cy="253.6" r="9.76" transform="translate(106.33 641.69) rotate(-76.66)"/><circle class="cls-9" cx="491.09" cy="253.6" r="9.76" transform="translate(-35.48 421.53) rotate(-45)"/><circle class="cls-10" cx="523.2" cy="253.6" r="9.76" transform="translate(9.32 525.58) rotate(-53.75)"/><rect class="cls-11" x="470.73" y="310.75" width="470.14" height="218.06"/><rect class="cls-12" x="496.06" y="336.08" width="419.48" height="167.4"/><path class="cls-5" d="M885.07,253.36l0-94.28H848.67l0,130.73h0A36.44,36.44,0,0,0,885.07,253.36Z"/><circle class="cls-13" cx="756.04" cy="461.63" r="29.68" transform="translate(-66.5 132.79) rotate(-9.62)"/><path class="cls-13" d="M761.87,476.64a25.33,25.33,0,0,1-32-22.05l-4.13-40.66a25.29,25.29,0,1,1,50.36-4.63L780.24,450A25.29,25.29,0,0,1,761.87,476.64Z"/><path class="cls-5" d="M789.48,328.3h-8.1a58.69,58.69,0,0,1-58.67-58.7l0-101.79,66.79,0Z"/><path class="cls-13" d="M759.06,435.36a25.29,25.29,0,0,1-32.4-31l23.53-82.07a25.29,25.29,0,1,1,48.55,14.16L775.21,418.5A25.25,25.25,0,0,1,759.06,435.36Z"/><path class="cls-14" d="M843.65,284.49H831.53a85.32,85.32,0,0,0-85.36,85.29V375A21.83,21.83,0,0,0,768,396.87h0l0,106.57,111.74,0,.07-182.85A36.14,36.14,0,0,0,843.65,284.49Z"/><path class="cls-5" d="M728.51,209h-1.16A17.94,17.94,0,0,1,709.42,191V159h19.1Z"/><path class="cls-5" d="M722.75,167.8l162.31.06v-6a84.62,84.62,0,0,0-84.58-84.65H791.1a68.32,68.32,0,0,0-68.34,68.28Z"/><path class="cls-13" d="M784.57,283.08h0a61.87,61.87,0,0,1-61.84-61.89l0-98.7,123.72,0,0,98.71A61.86,61.86,0,0,1,784.57,283.08Z"/><path class="cls-13" d="M848.64,228.78h0a21.91,21.91,0,0,0,21.91-21.89h0A21.91,21.91,0,0,0,848.66,185h0a21.91,21.91,0,0,0-21.91,21.89h0A21.91,21.91,0,0,0,848.64,228.78Z"/><path class="cls-13" d="M807.18,332.68h0a41.42,41.42,0,0,0,41.44-41.4l0-62.5-59.12,0,0,86.21A17.69,17.69,0,0,0,807.18,332.68Z"/><path class="cls-15" d="M789.49,289.8v-6.93a61.86,61.86,0,0,0,51.2-35.6A61.93,61.93,0,0,1,789.49,289.8Z"/><path class="cls-16" d="M814.9,222.2a8.57,8.57,0,1,0,8.57-8.56A8.57,8.57,0,0,0,814.9,222.2Z"/><path class="cls-16" d="M725,222.18a8.57,8.57,0,1,0,8.58-8.57A8.57,8.57,0,0,0,725,222.18Z"/><rect class="cls-17" x="768" y="396.87" width="111.73" height="19.96"/><circle class="cls-13" cx="780.08" cy="479.71" r="29.68" transform="translate(-74.22 809.57) rotate(-52.7)"/><path class="cls-13" d="M882.67,437.24a25.29,25.29,0,0,1-42-16.58L831.87,323a25.28,25.28,0,1,1,50.36-4.56L891,416.1A25.26,25.26,0,0,1,882.67,437.24Z"/><path class="cls-11" d="M780.32,264.48h-.91a23.28,23.28,0,0,1-23.28-23.28H803.6A23.28,23.28,0,0,1,780.32,264.48Z"/><path class="cls-13" d="M789.44,503.41a25.29,25.29,0,0,1-17.52-45.35l79-59.73a25.29,25.29,0,0,1,30.51,40.33l-79,59.73A25.09,25.09,0,0,1,789.44,503.41Z"/><path class="cls-5" d="M846.48,113.05H803.6v20.09h13.82v44A31.87,31.87,0,0,0,849.27,209h.63l0-96Z"/><path class="cls-18" d="M765.3,101.86a61.48,61.48,0,0,0-61.51,61.46v4.47l37.92,0h31.11l6-23,6.13,23h14l3-11.52,3.07,11.52h21.71v-4.47A61.49,61.49,0,0,0,765.3,101.86Z"/><path class="cls-19" d="M244.14,311.52h0a61.85,61.85,0,0,0,49.73-72l-17.74-97.1L154.42,164.7l17.74,97.1A61.86,61.86,0,0,0,244.14,311.52Z"/><path class="cls-19" d="M171.36,269.61h0A21.91,21.91,0,0,1,145.88,252h0a21.9,21.9,0,0,1,17.61-25.47h0A21.9,21.9,0,0,1,189,244.13h0A21.91,21.91,0,0,1,171.36,269.61Z"/><path class="cls-19" d="M230.79,364.38h0a41.41,41.41,0,0,1-48.19-33.29l-11.24-61.48L229.52,259,245,343.78A17.71,17.71,0,0,1,230.79,364.38Z"/><path class="cls-20" d="M240.5,319l-1.25-6.81a61.9,61.9,0,0,1-56.76-25.84A61.92,61.92,0,0,0,240.5,319Z"/><path class="cls-16" d="M203.38,257.08a8.57,8.57,0,1,1-10-6.88A8.56,8.56,0,0,1,203.38,257.08Z"/><path class="cls-16" d="M291.78,240.93a8.57,8.57,0,1,1-10-6.88A8.56,8.56,0,0,1,291.78,240.93Z"/><path class="cls-21" d="M223.33,522.13a29.27,29.27,0,0,0,19.8-48.4L205.8,432.32a29.27,29.27,0,1,0-44.14,38.44L199,512.17A29.2,29.2,0,0,0,223.33,522.13Z"/><path class="cls-11" d="M245,292.47l.9-.17a23.26,23.26,0,0,0,18.72-27.07h0l-46.7,8.51h0A23.29,23.29,0,0,0,245,292.47Z"/><path class="cls-19" d="M375.84,489.76a25.28,25.28,0,0,0-45.77-16.39l-57.76,80.42a25.29,25.29,0,0,0,41.08,29.5l57.75-80.42A25.12,25.12,0,0,0,375.84,489.76Z"/><path class="cls-3" d="M152.72,155.37h0l42.18-7.7,3.61,19.77-13.6,2.48,7.91,43.29a31.87,31.87,0,0,1-25.62,37.07l-.62.12L149.34,156Z"/><path class="cls-19" d="M294.38,592.85a25.29,25.29,0,0,0,15.49-42.44l-75.46-79.27a25.29,25.29,0,1,0-36.83,34.66L273,585.06A25.24,25.24,0,0,0,294.38,592.85Z"/><path class="cls-22" d="M292,187.32,188.24,205.67l-9.77-46.85L307.9,134.51l4,24.86A24.48,24.48,0,0,1,292,187.32Z"/><path class="cls-3" d="M236.37,158.22,262.14,149a42.41,42.41,0,0,0,27.31-47.88l-1.08-5.6-97.14,16.4A84.3,84.3,0,0,0,123.46,210l1.14,6.25,159.47-27.94Z"/><path class="cls-23" d="M370.47,539.17h-.39a4.23,4.23,0,0,1-3.82-4.59L384.54,332.3a4.22,4.22,0,0,1,8.41.76L374.67,535.33A4.22,4.22,0,0,1,370.47,539.17Z"/><path class="cls-24" d="M444.53,283.93c.63-22-17.52-35.67-34.08-31-11.09,3.1-15.9,9.86-16.75,11.2-.66-1.45-4.44-8.83-15-13.51-15.72-7-35.65,3.9-38.22,25.78-2.39,20.4,19.07,42.54,42.47,62.18a9,9,0,0,0,10.52.77C419.5,323.26,444,304.46,444.53,283.93Z"/><path class="cls-25" d="M373.32,313c3.4,0,3.4-5.27,0-5.27s-3.4,5.27,0,5.27Z"/><path class="cls-25" d="M369.65,302.8c-8.06-9.4-17.45-21.4-8.92-33.53,2-2.79-2.62-5.43-4.56-2.67-10,14.29.12,28.7,9.75,39.93,2.22,2.59,5.93-1.16,3.73-3.73Z"/><circle class="cls-19" cx="368.48" cy="475.6" r="31.83" transform="translate(-166.66 750.55) rotate(-79.43)"/><path class="cls-10" d="M381.24,417.94s14.11-32.72,44.5-23.64C425.74,394.3,417.1,424.09,381.24,417.94Z"/><text class="cls-26" transform="translate(527.42 438.11)"><tspan class="cls-27">H</tspan><tspan x="45.52" y="0">i..</tspan></text><path class="cls-6" d="M357.46,226.49a4.22,4.22,0,0,1-4.11-3.26l-6.68-28.53a4.22,4.22,0,1,1,8.22-1.92l6.68,28.52a4.23,4.23,0,0,1-3.15,5.08A4.49,4.49,0,0,1,357.46,226.49Z"/><path class="cls-6" d="M334.18,242.9a4.19,4.19,0,0,1-2.77-1l-22.06-19.3a4.22,4.22,0,1,1,5.56-6.35l22,19.29a4.22,4.22,0,0,1-2.78,7.4Z"/><path class="cls-6" d="M385.6,230.85a4.17,4.17,0,0,1-1.61-.32A4.22,4.22,0,0,1,381.7,225l11.19-27.08a4.22,4.22,0,1,1,7.8,3.22L389.5,228.24A4.21,4.21,0,0,1,385.6,230.85Z"/><path class="cls-24" d="M478.07,520H413a15.1,15.1,0,0,0-15.09,15.09v31.64A15.1,15.1,0,0,0,413,581.81h1.13v22.65l25.23-22.65h38.71a15.1,15.1,0,0,0,15.09-15.1V535.07A15.1,15.1,0,0,0,478.07,520Z"/><path class="cls-11" d="M457.78,538.81H414.09a2.14,2.14,0,0,1,0-4.27h43.69a2.14,2.14,0,1,1,0,4.27Z"/><path class="cls-11" d="M477,552.05H414.09a2.14,2.14,0,0,1,0-4.27H477a2.14,2.14,0,0,1,0,4.27Z"/><path class="cls-11" d="M477,565.76H414.09a2.14,2.14,0,0,1,0-4.27H477a2.14,2.14,0,0,1,0,4.27Z"/><path class="cls-11" d="M474.1,538.81h-7.29a2.14,2.14,0,0,1,0-4.27h7.29a2.14,2.14,0,0,1,0,4.27Z"/><path class="cls-21" d="M473,484.88H527a12.54,12.54,0,0,1,12.54,12.54v26.29A12.55,12.55,0,0,1,527,536.26h-.94v18.82l-21-18.82H473a12.55,12.55,0,0,1-12.54-12.55V497.42A12.54,12.54,0,0,1,473,484.88Z"/><path class="cls-11" d="M526.13,500.46h-36.3a1.71,1.71,0,1,1,0-3.41h36.3a1.71,1.71,0,1,1,0,3.41Z"/><path class="cls-11" d="M526.13,511.46H473.88a1.71,1.71,0,1,1,0-3.41h52.25a1.71,1.71,0,1,1,0,3.41Z"/><path class="cls-11" d="M526.13,522.85H473.88a1.71,1.71,0,1,1,0-3.41h52.25a1.71,1.71,0,1,1,0,3.41Z"/><path class="cls-11" d="M482.32,500.46h-6.05a1.71,1.71,0,0,1,0-3.41h6.05a1.71,1.71,0,1,1,0,3.41Z"/><rect class="cls-24" x="766.98" width="65.56" height="46.07" rx="9.17"/><polygon class="cls-24" points="799.76 59.02 789.58 43.3 799.76 33.12 809.94 43.3 799.76 59.02"/><path class="cls-11" d="M815.26,18.82c-.33-6.54-6-10.16-10.83-8.4a8.68,8.68,0,0,0-4.7,3.7A8.68,8.68,0,0,0,795,10.47c-4.81-1.7-10.47,2-10.72,8.53-.23,6.1,6.64,12.16,14,17.44a2.69,2.69,0,0,0,3.14,0C808.75,31.06,815.56,24.92,815.26,18.82Z"/><circle class="cls-28" cx="435.94" cy="114.58" r="31.17" transform="translate(279.21 537.2) rotate(-84.38)"/><path class="cls-29" d="M430.08,105.88a1.4,1.4,0,0,1-1.39-1.4,3.87,3.87,0,1,0-7.74,0,1.4,1.4,0,1,1-2.8,0,6.67,6.67,0,1,1,13.33,0A1.4,1.4,0,0,1,430.08,105.88Z"/><path class="cls-29" d="M452.32,105.88a1.4,1.4,0,0,1-1.4-1.4,3.87,3.87,0,1,0-7.73,0,1.4,1.4,0,1,1-2.8,0,6.67,6.67,0,1,1,13.33,0A1.4,1.4,0,0,1,452.32,105.88Z"/><path class="cls-29" d="M439.91,123a4.88,4.88,0,0,0-3-8.77,1,1,0,0,0,0,2.06,2.84,2.84,0,1,1,0,5.67,1,1,0,0,0-1,1h0a1,1,0,0,0,1,1,2.84,2.84,0,1,1,0,5.68,1,1,0,0,0,0,2.05,4.87,4.87,0,0,0,3-8.76Z"/><path class="cls-24" d="M460.8,121.13c-.15-3-2.75-4.65-4.95-3.84A4,4,0,0,0,453.7,119a3.91,3.91,0,0,0-2.17-1.67c-2.2-.78-4.78.91-4.9,3.9-.1,2.78,3,5.55,6.41,8a1.25,1.25,0,0,0,1.44,0C457.83,126.72,460.94,123.91,460.8,121.13Z"/><circle class="cls-28" cx="647.62" cy="224.47" r="31.17" transform="translate(282.16 804.33) rotate(-76.9)"/><path class="cls-29" d="M641.77,215.77a1.4,1.4,0,0,1-1.4-1.4,3.87,3.87,0,1,0-7.73,0,1.4,1.4,0,0,1-2.8,0,6.67,6.67,0,0,1,13.33,0A1.4,1.4,0,0,1,641.77,215.77Z"/><path class="cls-29" d="M664,215.77a1.4,1.4,0,0,1-1.4-1.4,3.87,3.87,0,1,0-7.73,0,1.4,1.4,0,0,1-2.8,0,6.67,6.67,0,0,1,13.33,0A1.4,1.4,0,0,1,664,215.77Z"/><path class="cls-29" d="M647.62,245.66a18.92,18.92,0,0,0,18.92-18.92H628.7A18.92,18.92,0,0,0,647.62,245.66Z"/><rect class="cls-11" x="633.38" y="226.74" width="28.47" height="6.4"/><path class="cls-30" d="M637.93,243a18.74,18.74,0,0,0,19.38,0c-1.27-3.38-5.13-5.85-9.69-5.85S639.2,239.58,637.93,243Z"/><path class="cls-24" d="M956.69,143.92c.31-11-8.73-17.78-17-15.47a14.54,14.54,0,0,0-8.35,5.58,14.48,14.48,0,0,0-7.45-6.73c-7.83-3.48-17.77,1.94-19,12.85-1.19,10.16,9.5,21.2,21.16,31a4.5,4.5,0,0,0,5.25.38C944.22,163.52,956.4,154.15,956.69,143.92Z"/><path class="cls-24" d="M978.15,176.94c-2.22-6.63-9.12-8.72-13.55-5.53a9.25,9.25,0,0,0-3.76,5.17,9.31,9.31,0,0,0-5.94-2.39c-5.44-.36-10.19,5.06-8.57,11.86,1.52,6.34,10.34,10.59,19.46,13.89A2.86,2.86,0,0,0,969,199C975,191.39,980.22,183.12,978.15,176.94Z"/><path class="cls-24" d="M130.86,300.74c.32-11-8.73-17.78-17-15.47a14.51,14.51,0,0,0-8.35,5.58,14.57,14.57,0,0,0-7.46-6.73c-7.83-3.48-17.77,1.94-19,12.85-1.19,10.17,9.51,21.2,21.17,31a4.47,4.47,0,0,0,5.24.38C118.39,320.34,130.57,311,130.86,300.74Z"/><path class="cls-24" d="M101.5,363.3c-2.22-6.63-9.13-8.71-13.55-5.52A9.24,9.24,0,0,0,84.18,363a9.26,9.26,0,0,0-5.94-2.39c-5.44-.36-10.19,5.06-8.57,11.86C71.19,378.76,80,383,89.13,386.31a2.86,2.86,0,0,0,3.22-.93C98.34,377.76,103.57,369.49,101.5,363.3Z"/><path class="cls-24" d="M145.62,350c2.73-4.8.31-10-3.9-10.88a7.39,7.39,0,0,0-5,.51,7.28,7.28,0,0,0-1.72-4.75c-2.67-3.39-8.36-3.32-11.5,1.22-2.93,4.24-.78,11.67,2.1,18.77a2.27,2.27,0,0,0,2.24,1.41C135.45,355.81,143.08,354.51,145.62,350Z"/></g></g></svg>