<svg width="447" height="401" viewBox="0 0 447 401" fill="none" xmlns="http://www.w3.org/2000/svg">
<g clip-path="url(#clip0_22_2)">
<path d="M438.44 142.96L424.31 189.69C418.809 207.853 408.641 224.255 394.82 237.26L239.06 383.96L221.63 400.37L221.39 400.14L192.55 372.92L48.28 236.78C34.1267 223.416 23.8271 206.491 18.46 187.78L4.28001 138.35C-15.31 70.14 34.82 0.89001 105.82 0.0100098C106.82 0.0100098 107.75 0.0100098 108.71 0.0100098C169.17 0.79001 218.44 49.22 220.71 109.12C220.78 110.62 220.81 112.12 220.81 113.65H221.88C221.886 98.9677 224.811 84.4332 230.484 70.8911C236.157 57.3491 244.465 45.0696 254.925 34.7666C265.385 24.4636 277.789 16.3425 291.416 10.8754C305.042 5.4082 319.619 2.70403 334.3 2.92004C357.672 3.18938 380.385 10.7088 399.3 24.44C436.34 51.29 451.7 99.15 438.44 142.96Z" fill="#2998EF"/>
<path d="M242.95 78.86V383.57L225.52 399.98L225.28 399.75L196.44 372.53L224.65 108.73L225.28 102.86L226.48 101.23L242.95 78.86Z" fill="#2998EF"/>
<path d="M441.52 145.29L428.38 188.7C422.77 207.254 412.392 224.012 398.28 237.3L225.53 399.98L225.29 399.75V113.27H225.82C217.33 52.27 271.45 2.27004 338.19 2.52004C339.19 2.52004 340.12 2.52004 341.08 2.59004C413.02 5.33004 462.36 76.4001 441.52 145.29Z" fill="#FA5965"/>
<path d="M291.92 83.46C291.36 83.46 290.81 83.46 290.26 83.46H289.75H288.61H288H287L286.35 83.51L285.35 83.58L284.69 83.64L283.69 83.74L283.02 83.82L282.09 83.94L281.41 84.03L280.49 84.17L279.82 84.29L278.91 84.45L278.24 84.57L277.33 84.76L276.68 84.9L275.77 85.11L275.13 85.26L274.22 85.5L273.6 85.66L272.66 85.93L272.08 86.1L271.08 86.41L270.58 86.57L269.29 87L269.1 87.07L267.63 87.61L267.15 87.8L266.15 88.18L265.54 88.43L264.72 88.78L264.07 89.07L263.31 89.41L262.64 89.73L261.92 90.08L261.24 90.42L260.55 90.78L259.86 91.15L259.2 91.51L258.5 91.9L257.87 92.27C257.63 92.4 257.4 92.54 257.17 92.68L256.56 93.05L255.86 93.49L255.28 93.86L254.57 94.33L254.02 94.7L253.3 95.2L252.8 95.55L252.06 96.09L251.64 96.41L250.83 97.02L250.63 97.18C249.57 98.01 248.53 98.87 247.52 99.76L247.4 99.87L246.56 100.63L246.28 100.89L245.5 101.63L245.19 101.94L244.44 102.68L244.12 103.01C243.87 103.26 243.64 103.51 243.4 103.76L243.07 104.1L242.37 104.86L242.05 105.22L241.37 106L241.07 106.35L240.39 107.16C240.3 107.28 240.21 107.39 240.11 107.5L239.44 108.35L239.19 108.67C238.96 108.96 238.73 109.26 238.51 109.56C238.438 109.649 238.371 109.743 238.31 109.84C238.07 110.15 237.84 110.47 237.61 110.79L237.47 110.99C237.23 111.34 236.98 111.69 236.74 112.05C235.085 114.491 233.601 117.044 232.3 119.69V119.69C232.1 120.1 231.91 120.5 231.72 120.91L231.64 121.07C231.46 121.46 231.28 121.86 231.11 122.26L231.01 122.47L230.52 123.64C230.52 123.72 230.45 123.79 230.42 123.87C230.26 124.26 230.11 124.66 229.95 125.05L229.86 125.29L229.42 126.49C229.42 126.56 229.42 126.64 229.34 126.71C229.2 127.12 229.05 127.53 228.92 127.95L228.86 128.14C228.71 128.57 228.58 128.99 228.45 129.43C228.446 129.47 228.446 129.51 228.45 129.55C228.31 130 228.18 130.46 228.05 130.92C226.927 134.934 226.19 139.046 225.85 143.2V143.52C225.85 143.99 225.78 144.47 225.75 144.94V145.34C225.75 145.7 225.75 146.07 225.75 146.43V147.12C225.75 147.7 225.75 148.28 225.75 148.86H225.11C225.11 147.96 225.11 147.07 225.11 146.18C224.403 128.997 217.136 112.739 204.804 100.752C192.473 88.765 176.016 81.9608 158.82 81.74H156.82C115.01 82.41 85.63 123.31 97.16 163.49L105.49 192.49C108.66 203.565 114.753 213.582 123.13 221.49L208.24 301.81L225.24 317.87L225.38 318L235.66 308.32L327.56 221.78C335.73 214.085 341.74 204.383 344.99 193.64L353.3 166.16C360.85 141.22 352.82 113.87 332.3 97.77C320.782 88.6856 306.588 83.6556 291.92 83.46Z" stroke="#FEFDFF" stroke-width="2" stroke-miterlimit="10"/>
</g>
<defs>
<clipPath id="clip0_22_2">
<rect width="446.32" height="400.37" fill="white"/>
</clipPath>
</defs>
</svg>
